<svg xmlns="http://www.w3.org/2000/svg" viewBox="0 0 2128.33039 443.36662"><defs><style>.cls-1{fill:#4756ff;}.cls-2{fill:#101920;}</style></defs><g id="Capa_2" data-name="Capa 2"><g id="Capa_1-2" data-name="Capa 1"><path class="cls-1" d="M183.133,289.15485a28.91856,28.91856,0,0,1,25.27488,42.96434c-6.10417,10.95458-15.63654,21.60182-15.63654,34.1424s9.53237,23.18781,15.63654,34.1424a28.91713,28.91713,0,1,1-50.554,0c6.10417-10.95459,15.63654-21.60185,15.63654-34.1424s-9.53237-23.18782-15.63654-34.1424A28.91856,28.91856,0,0,1,183.133,289.15485Zm77.10672,96.38341a28.91418,28.91418,0,1,1-28.915,28.915A28.91656,28.91656,0,0,1,260.23969,385.53826ZM106.022,231.3248a28.91466,28.91466,0,0,1,28.915,28.915v109.233a28.915,28.915,0,1,1-57.83,0v-109.233A28.91546,28.91546,0,0,1,106.022,231.3248ZM369.4731,308.43153a28.915,28.915,0,0,1,0,57.83006H260.23969a28.915,28.915,0,0,1,0-57.83006ZM28.91507,231.3248A28.915,28.915,0,1,1,0,260.23984,28.915,28.915,0,0,1,28.91507,231.3248Zm385.53852,0a28.915,28.915,0,1,1-14.04973,54.18993c-10.95459-6.10416-21.60185-15.63656-34.14243-15.63656-12.54013,0-23.18782,9.5324-34.1424,15.63656a28.91293,28.91293,0,1,1,0-50.554c10.95458,6.10416,21.60227,15.64034,34.1424,15.64078,12.54058,0,23.18784-9.53662,34.14243-15.64078A28.77924,28.77924,0,0,1,414.45359,231.3248ZM125.2987,154.21386a28.91714,28.91714,0,1,1-14.04931,54.19372c-10.955-6.10375-21.60226-15.63656-34.1424-15.63656-12.54015.00085-23.18825,9.53281-34.14241,15.63656a28.91692,28.91692,0,1,1,0-50.5536c10.95416,6.10375,21.60226,15.63614,34.14241,15.63656,12.54014,0,23.1874-9.53281,34.1424-15.63656A28.775,28.775,0,0,1,125.2987,154.21386ZM337.34643,44.98045a28.91463,28.91463,0,0,1,28.915,28.915V183.13268a28.915,28.915,0,1,1-57.83,0V73.89547A28.91463,28.91463,0,0,1,337.34643,44.98045Zm77.10716,109.23341a28.91714,28.91714,0,1,1-28.91545,28.91882A28.91618,28.91618,0,0,1,414.45359,154.21386ZM260.23969,0a28.9185,28.9185,0,0,1,25.27488,42.9643c-6.10375,10.95458-15.63612,21.60226-15.63654,34.14241,0,12.54056,9.53238,23.18783,15.63654,34.1424a28.91291,28.91291,0,1,1-50.554,0c6.10417-10.95457,15.64078-21.60184,15.64078-34.1424-.00042-12.54015-9.53661-23.18783-15.64078-34.14241A28.92456,28.92456,0,0,1,260.23969,0ZM183.133,77.10671a28.915,28.915,0,0,1,0,57.83H73.89534a28.915,28.915,0,1,1,0-57.83ZM183.133,0a28.915,28.915,0,1,1-28.91925,28.915A28.917,28.917,0,0,1,183.133,0Z"/><path class="cls-2" d="M1802.17936,249.26457q0,6.80135.73882,17.46274a77.8898,77.8898,0,0,0,4.59283,21.14,40.7985,40.7985,0,0,0,12.50386,17.83q8.82069,7.16862,24.81346,7.16883a52.1268,52.1268,0,0,0,13.78724-2.01995,34.5435,34.5435,0,0,0,13.78711-7.7214q6.4334-5.88255,10.47754-17.09589,4.22985-11.39721,4.22567-29.78085V155.5111h50.37V354.04565H1893.362V333.55278a81.54438,81.54438,0,0,1-15.995,13.69091q-19.11657,12.68323-48.34366,12.68493-23.34663,0-38.05614-7.90714-14.70315-7.90438-22.97715-20.03528a84.66817,84.66817,0,0,1-11.57927-25.18412,129.50855,129.50855,0,0,1-4.22992-24.08361q-.74088-10.84253-.73457-15.80543V155.5111h50.733ZM930.0851,150.057q28.74792.86181,49.2555,14.64747,21.87752,14.70573,32.353,41.36062,10.47966,26.65507,7.358,62.68636H879.65605q2.343,17.87118,11.08122,29.04292,12.13236,15.07363,35.47683,15.076,14.70951,0,25.185-6.43513a41.06038,41.06038,0,0,0,15.995-18.56793l49.99845,14.33805q-11.21418,27.20661-35.47683,42.28046a97.51,97.51,0,0,1-52.755,15.07555q-30.51453,0-53.86527-13.0518a96.50352,96.50352,0,0,1-36.3971-36.216q-13.05045-23.16163-13.05261-52.94078,0-32.537,12.87109-56.61809a93.0003,93.0003,0,0,1,35.47682-37.31648q22.612-13.419,52.02053-13.41862Zm501.06966-.05741q29.9636,0,52.57358,13.41862a93.22967,93.22967,0,0,1,35.47676,37.13116q12.68319,23.52956,12.68538,54.23129,0,30.88115-12.8669,54.59391a93.582,93.582,0,0,1-35.47676,36.94965q-22.61211,13.23543-52.39206,13.23712-29.96359,0-52.57358-13.41864a93.95659,93.95659,0,0,1-35.29949-36.94964q-12.49962-23.71321-12.49961-54.4124,0-31.06666,12.86689-54.59812a93.65271,93.65271,0,0,1,35.481-36.95008Q1401.7421,149.99772,1431.15476,149.99962Zm216.90072,0q35.10516,0,58.82545,17.82958,23.89735,17.647,30.51664,48.34831l-50.0027,13.2333q-4.41362-15.44088-15.442-24.07938a38.389,38.389,0,0,0-22.92226-8.60789l-1.70967-.03294q-15.81138,0-25.91957,7.72141-10.11231,7.53712-14.88885,20.77316a85.65417,85.65417,0,0,0-4.78284,29.59552q0,25.918,11.39775,42.0943,11.58152,15.993,34.19351,15.99538,16.913,0,25.73379-7.7214,8.82687-7.72077,13.23406-22.05945l51.10881,10.66076q-8.45989,31.61822-31.98991,48.71517-23.52384,17.09609-58.08675,17.09592-30.88188,0-52.94087-13.78969a90.99311,90.99311,0,0,1-33.82622-37.498q-11.76492-23.71315-11.765-53.493,0-30.14787,12.13232-53.86445a93.17455,93.17455,0,0,1,34.55655-37.3169Q1617.72241,149.99667,1648.05548,149.99962Zm397.14243.02448q21.57363.42045,38.46143,7.14434,18.01491,7.16922,29.0475,20.40211a60.521,60.521,0,0,1,13.783,31.25241l-51.10031,9.18918a24.80361,24.80361,0,0,0-9.56144-17.46274q-8.26976-6.43342-22.42422-7.53606-13.78506-.91879-22.24683,3.67726-8.26976,4.59524-8.26982,13.2333a11.73369,11.73369,0,0,0,3.49535,8.64083q3.67274,3.49217,14.889,7.16881,11.39775,3.67644,34.55655,9.55982,22.61191,5.88255,36.21133,13.78589,13.79124,7.72075,20.04324,18.7528,6.24342,10.84569,6.24774,26.28507,0,30.51519-22.06118,47.98149-22.05481,17.46273-61.029,17.46276-37.49885,0-60.66176-16.9144-22.97926-17.0961-27.94151-48.163l51.10443-7.71719.41792,1.72317a35.601,35.601,0,0,0,13.36507,20.15054q10.84681,7.905,27.397,7.90289,13.60147,0,20.95082-5.14463a17.17192,17.17192,0,0,0,7.358-14.70488q0-5.88255-2.94654-9.37873-2.938-3.67579-13.22993-7.16922-10.11231-3.49219-31.62263-9.18878-24.26472-6.25043-38.78634-13.97119-14.51956-7.72012-20.9552-18.38218-6.4334-10.845-6.43339-26.10355,0-19.11795,9.73884-33.09086,9.74516-14.15418,27.38846-21.69259,17.83132-7.72076,41.91453-7.71717ZM682.84088,83.81327q51.1003,0,80.32939,23.71213,26.84826,21.78,37.406,60.15521H745.46564a71.82911,71.82911,0,0,0-17.77219-22.653q-16.17855-13.96994-41.54718-14.15651-25.1829-.36727-41.906,10.84608-16.72947,11.21358-25.18918,31.8012-8.27613,20.58828-8.26976,48.16682,0,27.57134,8.26976,47.79194,8.45334,20.22039,25.18918,31.43394,16.72319,11.21229,41.906,11.58017a70.2626,70.2626,0,0,0,30.88812-5.87872A57.49614,57.49614,0,0,0,740.5646,286.9441q8.9599-12.58068,13.07373-31.78854l.52768-2.589H712.25154v-38.607H807.474a80.10933,80.10933,0,0,1,.54881,8.4555q.18357,6.06366.18576,6.98729,0,38.051-15.43778,67.4646a114.54187,114.54187,0,0,1-43.56924,46.13881q-28.12733,16.544-66.3607,16.54757a129.825,129.825,0,0,1-47.61333-8.82617,117.7632,117.7632,0,0,1-40.06972-26.4666q-17.2804-17.46335-27.397-43.20325-9.92235-25.73439-9.92029-59.37212,0-43.93421,16.72528-74.63764,16.90677-30.88178,45.224-47.05782Q648.278,83.81369,682.84088,83.81327Zm660.1664,8.22839V142.171H1230.95407v57.50035h89.94153l-17.48936,50.12934h-72.45217V357.43417h-50.12933V92.04166ZM1091.09423,155.5111h57.35217v38.60318h-57.35217v72.79455q0,11.58084.18152,20.95848.36725,9.19109,3.86256,14.70491,6.61707,10.47774,21.14091,11.39866a163.89329,163.89329,0,0,0,32.16718-1.4716v41.54637a190.31588,190.31588,0,0,1-40.44112,3.3062q-19.6677-.36789-35.29531-6.802a47.70486,47.70486,0,0,1-23.5302-21.14,60.87274,60.87274,0,0,1-7.72095-27.57136q-.36726-14.15419-.36729-31.9861V194.11428h-.00425V155.5111h.00425V100.365h50.0027Zm340.06053,41.1795q-16.36231,0-26.83978,7.35457a43.86211,43.86211,0,0,0-15.62767,20.40211q-4.96437,13.05178-4.96437,30.33341,0,26.65322,11.95081,42.46114,12.13225,15.62577,35.481,15.62854,24.08114,0,35.84405-16.17648,11.94868-16.36032,11.95081-41.9132,0-26.47018-12.13233-42.28045Q1454.86861,196.69146,1431.15476,196.6906Zm-502.73288-3.31043q-25.55016.00063-37.68461,15.62431-6.85137,8.85549-9.76834,22.61162h87.47622q-2.19087-16.10641-8.5906-24.81731Q950.29936,193.381,928.42188,193.38017Z"/></g></g></svg>